<svg width="34" height="34" viewBox="0 0 34 34" fill="none" xmlns="http://www.w3.org/2000/svg">
<path d="M16.5564 7.125C15.3869 7.125 14.2438 7.47323 13.2714 8.12565C12.299 8.77807 11.5412 9.70538 11.0936 10.7903C10.6461 11.8753 10.529 13.0691 10.7572 14.2208C10.9853 15.3726 11.5485 16.4306 12.3754 17.2609C13.2023 18.0913 14.2559 18.6568 15.4029 18.8859C16.5498 19.115 17.7387 18.9974 18.8191 18.548C19.8996 18.0986 20.823 17.3376 21.4727 16.3612C22.1225 15.3848 22.4692 14.2368 22.4692 13.0625C22.4692 11.4878 21.8463 9.97755 20.7374 8.86405C19.6285 7.75056 18.1246 7.125 16.5564 7.125Z" fill="white"/>
<path d="M16.556 0C13.2816 0 10.0806 0.975039 7.358 2.80182C4.63537 4.6286 2.51335 7.22507 1.26026 10.2629C0.00717345 13.3007 -0.320691 16.6434 0.318127 19.8684C0.956945 23.0933 2.53375 26.0556 4.84915 28.3806C7.16456 30.7057 10.1146 32.2891 13.3261 32.9306C16.5377 33.572 19.8665 33.2428 22.8918 31.9845C25.917 30.7262 28.5027 28.5953 30.3219 25.8614C32.1411 23.1274 33.1121 19.9131 33.1121 16.625C33.1071 12.2173 31.3612 7.99161 28.2574 4.8749C25.1536 1.7582 20.9454 0.00502873 16.556 0V0ZM26.0072 27.2246C25.9836 25.667 25.3516 24.181 24.2474 23.0869C23.1432 21.9927 21.6551 21.3779 20.1038 21.375H13.0083C11.457 21.3779 9.96891 21.9927 8.86468 23.0869C7.76046 24.181 7.12848 25.667 7.10491 27.2246C4.96039 25.3018 3.44807 22.7702 2.76822 19.965C2.08836 17.1599 2.27303 14.2136 3.29778 11.5162C4.32252 8.81882 6.13901 6.4976 8.5067 4.85992C10.8744 3.22224 13.6816 2.34534 16.5566 2.34534C19.4316 2.34534 22.2389 3.22224 24.6066 4.85992C26.9742 6.4976 28.7907 8.81882 29.8155 11.5162C30.8402 14.2136 31.0249 17.1599 30.345 19.965C29.6652 22.7702 28.1529 25.3018 26.0083 27.2246H26.0072Z" fill="white"/>
</svg>
