<svg width="335" height="120" viewBox="0 0 335 120" fill="none" xmlns="http://www.w3.org/2000/svg">
<g filter="url(#filter0_d_64_48)">
<rect x="4" width="327" height="113.133" fill="#F4F4F4"/>
</g>
<path d="M67.3453 37.1735C63.2741 30.4074 57.4945 24.7843 50.5637 20.8465L49.3306 20.1469L48.0976 20.8465C41.0488 24.8369 35.1958 30.5779 31.1274 37.492C27.0589 44.406 24.9187 52.2492 24.9219 60.2324C24.9219 60.7525 24.9311 61.2807 24.9491 61.8025C25.1941 68.8761 27.9519 74.8283 32.9243 79.0153C36.7293 82.2196 41.6102 84.1757 46.8688 84.6423V92.9858H51.7937V54.3384H46.8682V79.7804C38.5477 78.8349 30.2664 73.0692 29.8707 61.6382C29.8544 61.171 29.8461 60.698 29.8461 60.2324C29.8608 53.3392 31.6554 46.562 35.0627 40.5333C38.4699 34.5045 43.3786 29.4207 49.3306 25.7564C55.2826 29.4208 60.1912 34.5046 63.5983 40.5334C67.0054 46.5621 68.8 53.3393 68.8146 60.2324C68.8146 60.698 68.8062 61.171 68.7899 61.6384C68.4735 70.7828 63.1099 76.3013 56.7173 78.6275V83.7403C60.0345 82.818 63.1107 81.2065 65.737 79.015C70.7094 74.828 73.4672 68.8758 73.7122 61.8023C73.7302 61.2806 73.7394 60.7523 73.7394 60.2323C73.7438 52.124 71.5361 44.1624 67.3453 37.1735V37.1735Z" fill="#01D101"/>
<line x1="94.2737" y1="108.483" x2="94.2737" y2="3.8744" stroke="black" stroke-width="0.774881"/>
<path d="M114.592 29.7228V40.5711H112.577V31.412H110.283V29.7228H114.592ZM121.269 40.7261C120.401 40.7261 119.626 40.5091 118.944 40.0752C118.262 39.6309 117.725 38.9903 117.332 38.1535C116.94 37.3063 116.743 36.3041 116.743 35.1469C116.743 33.9898 116.94 32.9928 117.332 32.1559C117.725 31.3087 118.262 30.6681 118.944 30.2342C119.626 29.7899 120.401 29.5678 121.269 29.5678C122.137 29.5678 122.912 29.7899 123.593 30.2342C124.286 30.6681 124.828 31.3087 125.221 32.1559C125.613 32.9928 125.81 33.9898 125.81 35.1469C125.81 36.3041 125.613 37.3063 125.221 38.1535C124.828 38.9903 124.286 39.6309 123.593 40.0752C122.912 40.5091 122.137 40.7261 121.269 40.7261ZM121.269 38.9749C122.044 38.9749 122.653 38.6546 123.098 38.014C123.552 37.3734 123.779 36.4177 123.779 35.1469C123.779 33.8761 123.552 32.9204 123.098 32.2799C122.653 31.6393 122.044 31.319 121.269 31.319C120.504 31.319 119.895 31.6393 119.44 32.2799C118.996 32.9204 118.774 33.8761 118.774 35.1469C118.774 36.4177 118.996 37.3734 119.44 38.014C119.895 38.6546 120.504 38.9749 121.269 38.9749ZM131.696 40.7261C130.829 40.7261 130.054 40.5091 129.372 40.0752C128.69 39.6309 128.153 38.9903 127.76 38.1535C127.367 37.3063 127.171 36.3041 127.171 35.1469C127.171 33.9898 127.367 32.9928 127.76 32.1559C128.153 31.3087 128.69 30.6681 129.372 30.2342C130.054 29.7899 130.829 29.5678 131.696 29.5678C132.564 29.5678 133.339 29.7899 134.021 30.2342C134.713 30.6681 135.256 31.3087 135.648 32.1559C136.041 32.9928 136.237 33.9898 136.237 35.1469C136.237 36.3041 136.041 37.3063 135.648 38.1535C135.256 38.9903 134.713 39.6309 134.021 40.0752C133.339 40.5091 132.564 40.7261 131.696 40.7261ZM131.696 38.9749C132.471 38.9749 133.081 38.6546 133.525 38.014C133.98 37.3734 134.207 36.4177 134.207 35.1469C134.207 33.8761 133.98 32.9204 133.525 32.2799C133.081 31.6393 132.471 31.319 131.696 31.319C130.932 31.319 130.322 31.6393 129.868 32.2799C129.423 32.9204 129.201 33.8761 129.201 35.1469C129.201 36.4177 129.423 37.3734 129.868 38.014C130.322 38.6546 130.932 38.9749 131.696 38.9749ZM140.016 35.5654C139.241 35.5654 138.616 35.2916 138.141 34.744C137.666 34.1964 137.428 33.4784 137.428 32.5898C137.428 31.7013 137.666 30.9832 138.141 30.4357C138.616 29.8881 139.241 29.6143 140.016 29.6143C140.791 29.6143 141.416 29.8881 141.892 30.4357C142.377 30.9729 142.62 31.691 142.62 32.5898C142.62 33.4887 142.377 34.2119 141.892 34.7595C141.416 35.2967 140.791 35.5654 140.016 35.5654ZM146.525 29.7228H148.044L140.636 40.5711H139.117L146.525 29.7228ZM140.016 34.4805C140.44 34.4805 140.765 34.3152 140.993 33.9846C141.23 33.654 141.349 33.1891 141.349 32.5898C141.349 31.9906 141.23 31.5257 140.993 31.195C140.765 30.8644 140.44 30.6991 140.016 30.6991C139.613 30.6991 139.288 30.8696 139.04 31.2105C138.802 31.5412 138.684 32.0009 138.684 32.5898C138.684 33.1787 138.802 33.6437 139.04 33.9846C139.288 34.3152 139.613 34.4805 140.016 34.4805ZM147.13 40.6796C146.355 40.6796 145.73 40.4058 145.255 39.8582C144.779 39.3106 144.542 38.5926 144.542 37.704C144.542 36.8155 144.779 36.0975 145.255 35.5499C145.73 35.0023 146.355 34.7285 147.13 34.7285C147.905 34.7285 148.53 35.0023 149.005 35.5499C149.491 36.0975 149.733 36.8155 149.733 37.704C149.733 38.5926 149.491 39.3106 149.005 39.8582C148.53 40.4058 147.905 40.6796 147.13 40.6796ZM147.13 39.5948C147.543 39.5948 147.868 39.4294 148.106 39.0988C148.344 38.7579 148.463 38.293 148.463 37.704C148.463 37.1151 148.344 36.6554 148.106 36.3248C147.868 35.9838 147.543 35.8133 147.13 35.8133C146.716 35.8133 146.391 35.9786 146.153 36.3093C145.916 36.6399 145.797 37.1048 145.797 37.704C145.797 38.3033 145.916 38.7682 146.153 39.0988C146.391 39.4294 146.716 39.5948 147.13 39.5948ZM164.126 38.8819V40.5711H155.99V29.7228H163.909V31.412H158.005V34.2326H163.243V35.8908H158.005V38.8819H164.126ZM171.348 40.7261C170.253 40.7261 169.261 40.4885 168.373 40.0132C167.494 39.5276 166.802 38.8612 166.296 38.014C165.8 37.1668 165.552 36.2111 165.552 35.1469C165.552 34.0828 165.805 33.1271 166.311 32.2799C166.818 31.4327 167.51 30.7714 168.388 30.2962C169.277 29.8106 170.268 29.5678 171.364 29.5678C172.252 29.5678 173.063 29.7228 173.797 30.0327C174.53 30.3427 175.15 30.7921 175.656 31.381L174.355 32.6053C173.569 31.7581 172.603 31.3345 171.457 31.3345C170.713 31.3345 170.046 31.4998 169.457 31.8304C168.868 32.1507 168.409 32.6002 168.078 33.1787C167.747 33.7573 167.582 34.4134 167.582 35.1469C167.582 35.8805 167.747 36.5366 168.078 37.1151C168.409 37.6937 168.868 38.1483 169.457 38.4789C170.046 38.7992 170.713 38.9594 171.457 38.9594C172.603 38.9594 173.569 38.5306 174.355 37.673L175.656 38.9129C175.15 39.5018 174.525 39.9512 173.781 40.2612C173.048 40.5711 172.237 40.7261 171.348 40.7261ZM182.428 40.7261C181.322 40.7261 180.325 40.4885 179.436 40.0132C178.548 39.5276 177.851 38.8612 177.344 38.014C176.838 37.1565 176.585 36.2008 176.585 35.1469C176.585 34.0931 176.838 33.1426 177.344 32.2954C177.851 31.4378 178.548 30.7714 179.436 30.2962C180.325 29.8106 181.322 29.5678 182.428 29.5678C183.533 29.5678 184.53 29.8106 185.419 30.2962C186.307 30.7714 187.004 31.4327 187.511 32.2799C188.017 33.1271 188.27 34.0828 188.27 35.1469C188.27 36.2111 188.017 37.1668 187.511 38.014C187.004 38.8612 186.307 39.5276 185.419 40.0132C184.53 40.4885 183.533 40.7261 182.428 40.7261ZM182.428 38.9594C183.151 38.9594 183.802 38.7992 184.38 38.4789C184.959 38.1483 185.413 37.6937 185.744 37.1151C186.075 36.5262 186.24 35.8702 186.24 35.1469C186.24 34.4237 186.075 33.7728 185.744 33.1942C185.413 32.6053 184.959 32.1507 184.38 31.8304C183.802 31.4998 183.151 31.3345 182.428 31.3345C181.704 31.3345 181.053 31.4998 180.475 31.8304C179.896 32.1507 179.442 32.6053 179.111 33.1942C178.78 33.7728 178.615 34.4237 178.615 35.1469C178.615 35.8702 178.78 36.5262 179.111 37.1151C179.442 37.6937 179.896 38.1483 180.475 38.4789C181.053 38.7992 181.704 38.9594 182.428 38.9594ZM190.406 29.7228H192.42V38.8664H198.092V40.5711H190.406V29.7228ZM204.554 40.7261C203.449 40.7261 202.452 40.4885 201.563 40.0132C200.674 39.5276 199.977 38.8612 199.471 38.014C198.965 37.1565 198.711 36.2008 198.711 35.1469C198.711 34.0931 198.965 33.1426 199.471 32.2954C199.977 31.4378 200.674 30.7714 201.563 30.2962C202.452 29.8106 203.449 29.5678 204.554 29.5678C205.66 29.5678 206.657 29.8106 207.545 30.2962C208.434 30.7714 209.131 31.4327 209.637 32.2799C210.144 33.1271 210.397 34.0828 210.397 35.1469C210.397 36.2111 210.144 37.1668 209.637 38.014C209.131 38.8612 208.434 39.5276 207.545 40.0132C206.657 40.4885 205.66 40.7261 204.554 40.7261ZM204.554 38.9594C205.277 38.9594 205.928 38.7992 206.507 38.4789C207.085 38.1483 207.54 37.6937 207.871 37.1151C208.201 36.5262 208.366 35.8702 208.366 35.1469C208.366 34.4237 208.201 33.7728 207.871 33.1942C207.54 32.6053 207.085 32.1507 206.507 31.8304C205.928 31.4998 205.277 31.3345 204.554 31.3345C203.831 31.3345 203.18 31.4998 202.601 31.8304C202.023 32.1507 201.568 32.6053 201.238 33.1942C200.907 33.7728 200.742 34.4237 200.742 35.1469C200.742 35.8702 200.907 36.5262 201.238 37.1151C201.568 37.6937 202.023 38.1483 202.601 38.4789C203.18 38.7992 203.831 38.9594 204.554 38.9594ZM205.344 26.7162H207.623L204.926 28.8394H203.252L205.344 26.7162ZM219.94 35.023H221.846V39.3468C221.288 39.7911 220.637 40.132 219.894 40.3696C219.15 40.6073 218.385 40.7261 217.6 40.7261C216.494 40.7261 215.497 40.4885 214.609 40.0132C213.72 39.5276 213.023 38.8612 212.517 38.014C212.01 37.1668 211.757 36.2111 211.757 35.1469C211.757 34.0828 212.01 33.1271 212.517 32.2799C213.023 31.4327 213.72 30.7714 214.609 30.2962C215.508 29.8106 216.515 29.5678 217.631 29.5678C218.54 29.5678 219.367 29.7176 220.11 30.0172C220.854 30.3168 221.479 30.7559 221.986 31.3345L220.715 32.5743C219.888 31.7478 218.891 31.3345 217.724 31.3345C216.959 31.3345 216.277 31.4947 215.678 31.8149C215.089 32.1352 214.624 32.5847 214.283 33.1632C213.953 33.7418 213.787 34.403 213.787 35.1469C213.787 35.8702 213.953 36.5211 214.283 37.0996C214.624 37.6782 215.089 38.1328 215.678 38.4634C216.277 38.794 216.954 38.9594 217.708 38.9594C218.556 38.9594 219.299 38.7734 219.94 38.4014V35.023ZM224.503 29.7228H226.518V40.5711H224.503V29.7228ZM234.474 40.7261C233.378 40.7261 232.387 40.4885 231.498 40.0132C230.62 39.5276 229.928 38.8612 229.421 38.014C228.926 37.1668 228.678 36.2111 228.678 35.1469C228.678 34.0828 228.931 33.1271 229.437 32.2799C229.943 31.4327 230.635 30.7714 231.514 30.2962C232.402 29.8106 233.394 29.5678 234.489 29.5678C235.378 29.5678 236.189 29.7228 236.922 30.0327C237.656 30.3427 238.276 30.7921 238.782 31.381L237.48 32.6053C236.695 31.7581 235.729 31.3345 234.582 31.3345C233.838 31.3345 233.172 31.4998 232.583 31.8304C231.994 32.1507 231.534 32.6002 231.204 33.1787C230.873 33.7573 230.708 34.4134 230.708 35.1469C230.708 35.8805 230.873 36.5366 231.204 37.1151C231.534 37.6937 231.994 38.1483 232.583 38.4789C233.172 38.7992 233.838 38.9594 234.582 38.9594C235.729 38.9594 236.695 38.5306 237.48 37.673L238.782 38.9129C238.276 39.5018 237.651 39.9512 236.907 40.2612C236.173 40.5711 235.362 40.7261 234.474 40.7261ZM245.553 40.7261C244.448 40.7261 243.451 40.4885 242.562 40.0132C241.674 39.5276 240.976 38.8612 240.47 38.014C239.964 37.1565 239.711 36.2008 239.711 35.1469C239.711 34.0931 239.964 33.1426 240.47 32.2954C240.976 31.4378 241.674 30.7714 242.562 30.2962C243.451 29.8106 244.448 29.5678 245.553 29.5678C246.659 29.5678 247.656 29.8106 248.544 30.2962C249.433 30.7714 250.13 31.4327 250.636 32.2799C251.143 33.1271 251.396 34.0828 251.396 35.1469C251.396 36.2111 251.143 37.1668 250.636 38.014C250.13 38.8612 249.433 39.5276 248.544 40.0132C247.656 40.4885 246.659 40.7261 245.553 40.7261ZM245.553 38.9594C246.276 38.9594 246.927 38.7992 247.506 38.4789C248.084 38.1483 248.539 37.6937 248.87 37.1151C249.2 36.5262 249.366 35.8702 249.366 35.1469C249.366 34.4237 249.2 33.7728 248.87 33.1942C248.539 32.6053 248.084 32.1507 247.506 31.8304C246.927 31.4998 246.276 31.3345 245.553 31.3345C244.83 31.3345 244.179 31.4998 243.6 31.8304C243.022 32.1507 242.567 32.6053 242.237 33.1942C241.906 33.7728 241.741 34.4237 241.741 35.1469C241.741 35.8702 241.906 36.5262 242.237 37.1151C242.567 37.6937 243.022 38.1483 243.6 38.4789C244.179 38.7992 244.83 38.9594 245.553 38.9594Z" fill="black"/>
<path d="M114.034 74.108H110.221V73.1161H118.993V74.108H115.18V83.9645H114.034V74.108ZM125.416 84.0575C124.341 84.0575 123.365 83.8198 122.487 83.3446C121.619 82.859 120.937 82.1977 120.441 81.3609C119.956 80.524 119.713 79.5838 119.713 78.5403C119.713 77.4968 119.956 76.5566 120.441 75.7197C120.937 74.8829 121.619 74.2268 122.487 73.7515C123.365 73.2659 124.341 73.0232 125.416 73.0232C126.49 73.0232 127.456 73.2608 128.314 73.736C129.182 74.2113 129.864 74.8725 130.36 75.7197C130.856 76.5566 131.104 77.4968 131.104 78.5403C131.104 79.5838 130.856 80.5292 130.36 81.3764C129.864 82.2132 129.182 82.8693 128.314 83.3446C127.456 83.8198 126.49 84.0575 125.416 84.0575ZM125.416 83.0346C126.273 83.0346 127.048 82.8435 127.741 82.4612C128.433 82.0686 128.975 81.5313 129.368 80.8495C129.76 80.1572 129.957 79.3875 129.957 78.5403C129.957 77.6931 129.76 76.9286 129.368 76.2467C128.975 75.5544 128.433 75.0172 127.741 74.6349C127.048 74.2423 126.273 74.046 125.416 74.046C124.558 74.046 123.778 74.2423 123.076 74.6349C122.384 75.0172 121.836 75.5544 121.433 76.2467C121.04 76.9286 120.844 77.6931 120.844 78.5403C120.844 79.3875 121.04 80.1572 121.433 80.8495C121.836 81.5313 122.384 82.0686 123.076 82.4612C123.778 82.8435 124.558 83.0346 125.416 83.0346ZM133.674 73.1161H138.091C139.238 73.1161 140.25 73.3486 141.128 73.8135C142.007 74.2681 142.689 74.9087 143.174 75.7352C143.66 76.5514 143.902 77.4865 143.902 78.5403C143.902 79.5941 143.66 80.5343 143.174 81.3609C142.689 82.1771 142.007 82.8177 141.128 83.2826C140.25 83.7372 139.238 83.9645 138.091 83.9645H133.674V73.1161ZM138.029 82.9726C138.979 82.9726 139.811 82.7867 140.524 82.4147C141.237 82.0324 141.79 81.5107 142.182 80.8495C142.575 80.1779 142.771 79.4082 142.771 78.5403C142.771 77.6724 142.575 76.9079 142.182 76.2467C141.79 75.5751 141.237 75.0533 140.524 74.6814C139.811 74.2991 138.979 74.108 138.029 74.108H134.821V82.9726H138.029ZM151.22 84.0575C150.146 84.0575 149.169 83.8198 148.291 83.3446C147.423 82.859 146.741 82.1977 146.245 81.3609C145.76 80.524 145.517 79.5838 145.517 78.5403C145.517 77.4968 145.76 76.5566 146.245 75.7197C146.741 74.8829 147.423 74.2268 148.291 73.7515C149.169 73.2659 150.146 73.0232 151.22 73.0232C152.295 73.0232 153.261 73.2608 154.118 73.736C154.986 74.2113 155.668 74.8725 156.164 75.7197C156.66 76.5566 156.908 77.4968 156.908 78.5403C156.908 79.5838 156.66 80.5292 156.164 81.3764C155.668 82.2132 154.986 82.8693 154.118 83.3446C153.261 83.8198 152.295 84.0575 151.22 84.0575ZM151.22 83.0346C152.078 83.0346 152.852 82.8435 153.545 82.4612C154.237 82.0686 154.779 81.5313 155.172 80.8495C155.565 80.1572 155.761 79.3875 155.761 78.5403C155.761 77.6931 155.565 76.9286 155.172 76.2467C154.779 75.5544 154.237 75.0172 153.545 74.6349C152.852 74.2423 152.078 74.046 151.22 74.046C150.362 74.046 149.582 74.2423 148.88 74.6349C148.188 75.0172 147.64 75.5544 147.237 76.2467C146.845 76.9286 146.648 77.6931 146.648 78.5403C146.648 79.3875 146.845 80.1572 147.237 80.8495C147.64 81.5313 148.188 82.0686 148.88 82.4612C149.582 82.8435 150.362 83.0346 151.22 83.0346ZM162.469 84.0575C161.663 84.0575 160.888 83.9283 160.145 83.67C159.411 83.4117 158.843 83.0708 158.44 82.6472L158.889 81.7638C159.282 82.1564 159.804 82.4767 160.455 82.7247C161.105 82.9623 161.777 83.0811 162.469 83.0811C163.44 83.0811 164.169 82.9055 164.654 82.5542C165.14 82.1926 165.383 81.7277 165.383 81.1594C165.383 80.7255 165.248 80.3794 164.98 80.1211C164.722 79.8628 164.401 79.6665 164.019 79.5322C163.637 79.3875 163.105 79.2325 162.423 79.0672C161.607 78.8606 160.956 78.6643 160.47 78.4783C159.984 78.282 159.566 77.9876 159.215 77.595C158.874 77.2023 158.703 76.6703 158.703 75.9987C158.703 75.4511 158.848 74.9552 159.137 74.5109C159.427 74.0563 159.871 73.6947 160.47 73.4261C161.069 73.1575 161.813 73.0232 162.702 73.0232C163.322 73.0232 163.926 73.111 164.515 73.2866C165.114 73.4519 165.631 73.6844 166.065 73.984L165.677 74.8984C165.223 74.5987 164.737 74.3766 164.22 74.232C163.704 74.077 163.198 73.9995 162.702 73.9995C161.751 73.9995 161.033 74.1855 160.548 74.5574C160.072 74.919 159.835 75.3891 159.835 75.9677C159.835 76.4016 159.964 76.7529 160.222 77.0215C160.491 77.2798 160.821 77.4813 161.214 77.6259C161.617 77.7603 162.154 77.9101 162.826 78.0754C163.621 78.2717 164.262 78.468 164.747 78.6643C165.243 78.8503 165.662 79.1395 166.003 79.5322C166.344 79.9144 166.514 80.4362 166.514 81.0974C166.514 81.645 166.364 82.1461 166.065 82.6007C165.775 83.045 165.326 83.4014 164.716 83.67C164.107 83.9283 163.358 84.0575 162.469 84.0575ZM173.069 73.1161H174.216V82.9726H180.291V83.9645H173.069V73.1161ZM186.725 84.0575C185.651 84.0575 184.674 83.8198 183.796 83.3446C182.928 82.859 182.247 82.1977 181.751 81.3609C181.265 80.524 181.022 79.5838 181.022 78.5403C181.022 77.4968 181.265 76.5566 181.751 75.7197C182.247 74.8829 182.928 74.2268 183.796 73.7515C184.674 73.2659 185.651 73.0232 186.725 73.0232C187.8 73.0232 188.766 73.2608 189.623 73.736C190.491 74.2113 191.173 74.8725 191.669 75.7197C192.165 76.5566 192.413 77.4968 192.413 78.5403C192.413 79.5838 192.165 80.5292 191.669 81.3764C191.173 82.2132 190.491 82.8693 189.623 83.3446C188.766 83.8198 187.8 84.0575 186.725 84.0575ZM186.725 83.0346C187.583 83.0346 188.358 82.8435 189.05 82.4612C189.742 82.0686 190.285 81.5313 190.677 80.8495C191.07 80.1572 191.266 79.3875 191.266 78.5403C191.266 77.6931 191.07 76.9286 190.677 76.2467C190.285 75.5544 189.742 75.0172 189.05 74.6349C188.358 74.2423 187.583 74.046 186.725 74.046C185.868 74.046 185.088 74.2423 184.385 74.6349C183.693 75.0172 183.145 75.5544 182.742 76.2467C182.35 76.9286 182.154 77.6931 182.154 78.5403C182.154 79.3875 182.35 80.1572 182.742 80.8495C183.145 81.5313 183.693 82.0686 184.385 82.4612C185.088 82.8435 185.868 83.0346 186.725 83.0346ZM197.975 84.0575C197.169 84.0575 196.394 83.9283 195.65 83.67C194.916 83.4117 194.348 83.0708 193.945 82.6472L194.395 81.7638C194.787 82.1564 195.309 82.4767 195.96 82.7247C196.611 82.9623 197.282 83.0811 197.975 83.0811C198.946 83.0811 199.674 82.9055 200.16 82.5542C200.645 82.1926 200.888 81.7277 200.888 81.1594C200.888 80.7255 200.754 80.3794 200.485 80.1211C200.227 79.8628 199.907 79.6665 199.524 79.5322C199.142 79.3875 198.61 79.2325 197.928 79.0672C197.112 78.8606 196.461 78.6643 195.975 78.4783C195.49 78.282 195.071 77.9876 194.72 77.595C194.379 77.2023 194.209 76.6703 194.209 75.9987C194.209 75.4511 194.353 74.9552 194.643 74.5109C194.932 74.0563 195.376 73.6947 195.975 73.4261C196.575 73.1575 197.318 73.0232 198.207 73.0232C198.827 73.0232 199.431 73.111 200.02 73.2866C200.619 73.4519 201.136 73.6844 201.57 73.984L201.183 74.8984C200.728 74.5987 200.242 74.3766 199.726 74.232C199.209 74.077 198.703 73.9995 198.207 73.9995C197.257 73.9995 196.538 74.1855 196.053 74.5574C195.578 74.919 195.34 75.3891 195.34 75.9677C195.34 76.4016 195.469 76.7529 195.727 77.0215C195.996 77.2798 196.327 77.4813 196.719 77.6259C197.122 77.7603 197.659 77.9101 198.331 78.0754C199.127 78.2717 199.767 78.468 200.253 78.6643C200.749 78.8503 201.167 79.1395 201.508 79.5322C201.849 79.9144 202.019 80.4362 202.019 81.0974C202.019 81.645 201.87 82.1461 201.57 82.6007C201.281 83.045 200.831 83.4014 200.222 83.67C199.612 83.9283 198.863 84.0575 197.975 84.0575ZM212.635 73.1161C214.019 73.1161 215.104 73.4468 215.889 74.108C216.674 74.7692 217.067 75.6784 217.067 76.8356C217.067 77.9927 216.674 78.9019 215.889 79.5632C215.104 80.2141 214.019 80.5395 212.635 80.5395H209.721V83.9645H208.574V73.1161H212.635ZM212.604 79.5322C213.678 79.5322 214.499 79.2997 215.068 78.8348C215.636 78.3595 215.92 77.6931 215.92 76.8356C215.92 75.9574 215.636 75.2858 215.068 74.8209C214.499 74.3456 213.678 74.108 212.604 74.108H209.721V79.5322H212.604ZM226.955 83.9645L224.475 80.4775C224.196 80.5085 223.907 80.524 223.607 80.524H220.693V83.9645H219.547V73.1161H223.607C224.991 73.1161 226.076 73.4468 226.862 74.108C227.647 74.7692 228.039 75.6784 228.039 76.8356C228.039 77.6828 227.822 78.4008 227.388 78.9897C226.965 79.5683 226.355 79.9868 225.56 80.245L228.21 83.9645H226.955ZM223.576 79.5477C224.651 79.5477 225.472 79.31 226.04 78.8348C226.608 78.3595 226.893 77.6931 226.893 76.8356C226.893 75.9574 226.608 75.2858 226.04 74.8209C225.472 74.3456 224.651 74.108 223.576 74.108H220.693V79.5477H223.576ZM235.488 84.0575C234.414 84.0575 233.438 83.8198 232.559 83.3446C231.691 82.859 231.01 82.1977 230.514 81.3609C230.028 80.524 229.785 79.5838 229.785 78.5403C229.785 77.4968 230.028 76.5566 230.514 75.7197C231.01 74.8829 231.691 74.2268 232.559 73.7515C233.438 73.2659 234.414 73.0232 235.488 73.0232C236.563 73.0232 237.529 73.2608 238.386 73.736C239.254 74.2113 239.936 74.8725 240.432 75.7197C240.928 76.5566 241.176 77.4968 241.176 78.5403C241.176 79.5838 240.928 80.5292 240.432 81.3764C239.936 82.2132 239.254 82.8693 238.386 83.3446C237.529 83.8198 236.563 84.0575 235.488 84.0575ZM235.488 83.0346C236.346 83.0346 237.121 82.8435 237.813 82.4612C238.505 82.0686 239.048 81.5313 239.44 80.8495C239.833 80.1572 240.029 79.3875 240.029 78.5403C240.029 77.6931 239.833 76.9286 239.44 76.2467C239.048 75.5544 238.505 75.0172 237.813 74.6349C237.121 74.2423 236.346 74.046 235.488 74.046C234.631 74.046 233.851 74.2423 233.148 74.6349C232.456 75.0172 231.908 75.5544 231.505 76.2467C231.113 76.9286 230.917 77.6931 230.917 78.5403C230.917 79.3875 231.113 80.1572 231.505 80.8495C231.908 81.5313 232.456 82.0686 233.148 82.4612C233.851 82.8435 234.631 83.0346 235.488 83.0346ZM243.747 73.1161H248.163C249.31 73.1161 250.323 73.3486 251.201 73.8135C252.079 74.2681 252.761 74.9087 253.247 75.7352C253.732 76.5514 253.975 77.4865 253.975 78.5403C253.975 79.5941 253.732 80.5343 253.247 81.3609C252.761 82.1771 252.079 82.8177 251.201 83.2826C250.323 83.7372 249.31 83.9645 248.163 83.9645H243.747V73.1161ZM248.101 82.9726C249.052 82.9726 249.884 82.7867 250.597 82.4147C251.309 82.0324 251.862 81.5107 252.255 80.8495C252.647 80.1779 252.844 79.4082 252.844 78.5403C252.844 77.6724 252.647 76.9079 252.255 76.2467C251.862 75.5751 251.309 75.0533 250.597 74.6814C249.884 74.2991 249.052 74.108 248.101 74.108H244.893V82.9726H248.101ZM260.921 84.0575C259.515 84.0575 258.42 83.6545 257.635 82.8486C256.85 82.0428 256.457 80.8701 256.457 79.3307V73.1161H257.604V79.2842C257.604 80.5447 257.888 81.4849 258.456 82.1048C259.025 82.7247 259.846 83.0346 260.921 83.0346C262.005 83.0346 262.832 82.7247 263.4 82.1048C263.968 81.4849 264.253 80.5447 264.253 79.2842V73.1161H265.368V79.3307C265.368 80.8701 264.976 82.0428 264.191 82.8486C263.416 83.6545 262.326 84.0575 260.921 84.0575ZM273.536 84.0575C272.461 84.0575 271.49 83.8198 270.622 83.3446C269.764 82.8693 269.088 82.2132 268.592 81.3764C268.106 80.5292 267.863 79.5838 267.863 78.5403C267.863 77.4968 268.106 76.5566 268.592 75.7197C269.088 74.8725 269.77 74.2113 270.637 73.736C271.505 73.2608 272.477 73.0232 273.551 73.0232C274.357 73.0232 275.101 73.1575 275.783 73.4261C276.465 73.6947 277.043 74.0873 277.518 74.6039L276.79 75.3323C275.943 74.4748 274.874 74.046 273.582 74.046C272.725 74.046 271.944 74.2423 271.242 74.6349C270.539 75.0275 269.987 75.5648 269.584 76.2467C269.191 76.9286 268.995 77.6931 268.995 78.5403C268.995 79.3875 269.191 80.1521 269.584 80.834C269.987 81.5159 270.539 82.0531 271.242 82.4457C271.944 82.8383 272.725 83.0346 273.582 83.0346C274.884 83.0346 275.953 82.6007 276.79 81.7328L277.518 82.4612C277.043 82.9778 276.459 83.3756 275.767 83.6545C275.085 83.9232 274.341 84.0575 273.536 84.0575ZM281.935 74.108H278.122V73.1161H286.894V74.108H283.081V83.9645H281.935V74.108ZM293.317 84.0575C292.242 84.0575 291.266 83.8198 290.388 83.3446C289.52 82.859 288.838 82.1977 288.342 81.3609C287.857 80.524 287.614 79.5838 287.614 78.5403C287.614 77.4968 287.857 76.5566 288.342 75.7197C288.838 74.8829 289.52 74.2268 290.388 73.7515C291.266 73.2659 292.242 73.0232 293.317 73.0232C294.391 73.0232 295.357 73.2608 296.215 73.736C297.083 74.2113 297.765 74.8725 298.261 75.7197C298.757 76.5566 299.005 77.4968 299.005 78.5403C299.005 79.5838 298.757 80.5292 298.261 81.3764C297.765 82.2132 297.083 82.8693 296.215 83.3446C295.357 83.8198 294.391 84.0575 293.317 84.0575ZM293.317 83.0346C294.174 83.0346 294.949 82.8435 295.642 82.4612C296.334 82.0686 296.876 81.5313 297.269 80.8495C297.661 80.1572 297.858 79.3875 297.858 78.5403C297.858 77.6931 297.661 76.9286 297.269 76.2467C296.876 75.5544 296.334 75.0172 295.642 74.6349C294.949 74.2423 294.174 74.046 293.317 74.046C292.459 74.046 291.679 74.2423 290.977 74.6349C290.285 75.0172 289.737 75.5544 289.334 76.2467C288.941 76.9286 288.745 77.6931 288.745 78.5403C288.745 79.3875 288.941 80.1572 289.334 80.8495C289.737 81.5313 290.285 82.0686 290.977 82.4612C291.679 82.8435 292.459 83.0346 293.317 83.0346ZM304.566 84.0575C303.76 84.0575 302.985 83.9283 302.242 83.67C301.508 83.4117 300.94 83.0708 300.537 82.6472L300.986 81.7638C301.379 82.1564 301.901 82.4767 302.551 82.7247C303.202 82.9623 303.874 83.0811 304.566 83.0811C305.537 83.0811 306.266 82.9055 306.751 82.5542C307.237 82.1926 307.48 81.7277 307.48 81.1594C307.48 80.7255 307.345 80.3794 307.077 80.1211C306.818 79.8628 306.498 79.6665 306.116 79.5322C305.734 79.3875 305.202 79.2325 304.52 79.0672C303.703 78.8606 303.053 78.6643 302.567 78.4783C302.081 78.282 301.663 77.9876 301.312 77.595C300.971 77.2023 300.8 76.6703 300.8 75.9987C300.8 75.4511 300.945 74.9552 301.234 74.5109C301.523 74.0563 301.968 73.6947 302.567 73.4261C303.166 73.1575 303.91 73.0232 304.799 73.0232C305.419 73.0232 306.023 73.111 306.612 73.2866C307.211 73.4519 307.728 73.6844 308.162 73.984L307.774 74.8984C307.32 74.5987 306.834 74.3766 306.317 74.232C305.801 74.077 305.295 73.9995 304.799 73.9995C303.848 73.9995 303.13 74.1855 302.644 74.5574C302.169 74.919 301.932 75.3891 301.932 75.9677C301.932 76.4016 302.061 76.7529 302.319 77.0215C302.588 77.2798 302.918 77.4813 303.311 77.6259C303.714 77.7603 304.251 77.9101 304.923 78.0754C305.718 78.2717 306.359 78.468 306.844 78.6643C307.34 78.8503 307.759 79.1395 308.1 79.5322C308.441 79.9144 308.611 80.4362 308.611 81.0974C308.611 81.645 308.461 82.1461 308.162 82.6007C307.872 83.045 307.423 83.4014 306.813 83.67C306.204 83.9283 305.455 84.0575 304.566 84.0575Z" fill="black"/>
<defs>
<filter id="filter0_d_64_48" x="0.900474" y="0" width="333.199" height="119.332" filterUnits="userSpaceOnUse" color-interpolation-filters="sRGB">
<feFlood flood-opacity="0" result="BackgroundImageFix"/>
<feColorMatrix in="SourceAlpha" type="matrix" values="0 0 0 0 0 0 0 0 0 0 0 0 0 0 0 0 0 0 127 0" result="hardAlpha"/>
<feOffset dy="3.09953"/>
<feGaussianBlur stdDeviation="1.54976"/>
<feComposite in2="hardAlpha" operator="out"/>
<feColorMatrix type="matrix" values="0 0 0 0 0 0 0 0 0 0 0 0 0 0 0 0 0 0 0.25 0"/>
<feBlend mode="normal" in2="BackgroundImageFix" result="effect1_dropShadow_64_48"/>
<feBlend mode="normal" in="SourceGraphic" in2="effect1_dropShadow_64_48" result="shape"/>
</filter>
</defs>
</svg>
