<svg width="335" height="121" viewBox="0 0 335 121" fill="none" xmlns="http://www.w3.org/2000/svg">
<g filter="url(#filter0_d_64_84)">
<rect x="4" width="327" height="113.823" fill="#F4F4F4"/>
</g>
<path d="M48.943 26.5068C42.966 26.5068 37.1232 28.29 32.1535 31.6309C27.1838 34.9718 23.3104 39.7204 21.0231 45.2762C18.7358 50.8319 18.1373 56.9453 19.3033 62.8433C20.4694 68.7412 23.3476 74.1589 27.574 78.411C31.8004 82.6632 37.1852 85.559 43.0473 86.7322C48.9095 87.9054 54.9858 87.3032 60.5079 85.002C66.0299 82.7007 70.7497 78.8036 74.0704 73.8036C77.391 68.8036 79.1634 62.9251 79.1634 56.9116C79.1634 52.9188 78.3817 48.9651 76.863 45.2762C75.3443 41.5873 73.1183 38.2355 70.3121 35.4121C67.5058 32.5888 64.1744 30.3492 60.5079 28.8212C56.8414 27.2932 52.9116 26.5068 48.943 26.5068V26.5068ZM48.943 81.2354C44.1614 81.2354 39.4872 79.8089 35.5114 77.1361C31.5356 74.4634 28.4369 70.6645 26.6071 66.2199C24.7772 61.7753 24.2984 56.8846 25.2313 52.1662C26.1641 47.4479 28.4667 43.1138 31.8478 39.712C35.2289 36.3103 39.5367 33.9937 44.2265 33.0551C48.9162 32.1166 53.7773 32.5983 58.1949 34.4393C62.6126 36.2803 66.3884 39.3979 69.0449 43.398C71.7014 47.398 73.1193 52.1008 73.1193 56.9116C73.1193 63.3627 70.5722 69.5495 66.0383 74.1112C61.5043 78.6728 55.355 81.2354 48.943 81.2354V81.2354Z" fill="#01D101"/>
<path d="M48.9436 53.8711C42.8995 53.8711 42.8995 51.9556 42.8995 50.8306C42.8995 49.7057 45.015 47.7901 48.9436 47.7901C52.8723 47.7901 53.1442 49.7361 53.1745 50.8306H59.2185C59.1777 48.7593 58.4372 46.7637 57.119 45.1722C55.8008 43.5806 53.9833 42.488 51.9657 42.074V38.6687H45.9216V41.9828C39.8775 42.9862 36.8555 46.9084 36.8555 50.8306C36.8555 54.236 38.4269 59.9521 48.9436 59.9521C54.9877 59.9521 54.9877 62.0196 54.9877 62.9926C54.9877 63.9655 53.114 66.033 48.9436 66.033C43.3831 66.033 42.8995 63.4182 42.8995 62.9926H36.8555C36.8555 65.7898 38.85 70.7458 45.9216 71.8708V75.1545H51.9657V71.8708C58.0097 70.837 61.0318 66.9148 61.0318 62.9926C61.0318 59.5872 59.4603 53.8711 48.9436 53.8711V53.8711Z" fill="#01D101"/>
<line x1="94.2713" y1="109.146" x2="94.2713" y2="3.89804" stroke="black" stroke-width="0.779611"/>
<path d="M116.115 30.5922C117.061 30.5922 117.883 30.7481 118.579 31.06C119.286 31.3718 119.826 31.8188 120.201 32.4009C120.575 32.983 120.762 33.6743 120.762 34.4747C120.762 35.2647 120.575 35.9559 120.201 36.5484C119.826 37.1306 119.286 37.5775 118.579 37.8894C117.883 38.2012 117.061 38.3571 116.115 38.3571H113.652V41.5068H111.625V30.5922H116.115ZM116.022 36.642C116.905 36.642 117.576 36.4549 118.033 36.0807C118.491 35.7065 118.719 35.1711 118.719 34.4747C118.719 33.7782 118.491 33.2429 118.033 32.8687C117.576 32.4945 116.905 32.3074 116.022 32.3074H113.652V36.642H116.022ZM129.927 41.5068L127.698 38.3104C127.604 38.3208 127.464 38.326 127.277 38.326H124.813V41.5068H122.786V30.5922H127.277C128.223 30.5922 129.044 30.7481 129.74 31.06C130.447 31.3718 130.988 31.8188 131.362 32.4009C131.736 32.983 131.923 33.6743 131.923 34.4747C131.923 35.2959 131.72 36.0027 131.315 36.5952C130.92 37.1877 130.348 37.6295 129.6 37.9206L132.11 41.5068H129.927ZM129.881 34.4747C129.881 33.7782 129.652 33.2429 129.194 32.8687C128.737 32.4945 128.067 32.3074 127.183 32.3074H124.813V36.6576H127.183C128.067 36.6576 128.737 36.4705 129.194 36.0963C129.652 35.7117 129.881 35.1711 129.881 34.4747ZM142.377 39.8072V41.5068H134.191V30.5922H142.159V32.2918H136.218V35.1296H141.488V36.7979H136.218V39.8072H142.377ZM149.643 41.6627C148.541 41.6627 147.543 41.4236 146.649 40.9455C145.765 40.4569 145.069 39.7864 144.56 38.9341C144.061 38.0817 143.811 37.1202 143.811 36.0495C143.811 34.9788 144.066 34.0173 144.575 33.1649C145.085 32.3126 145.781 31.6473 146.665 31.1691C147.559 30.6806 148.556 30.4363 149.658 30.4363C150.552 30.4363 151.368 30.5922 152.106 30.9041C152.844 31.2159 153.468 31.6681 153.977 32.2606L152.668 33.4924C151.878 32.64 150.906 32.2138 149.752 32.2138C149.003 32.2138 148.333 32.3801 147.74 32.7128C147.148 33.035 146.685 33.4872 146.353 34.0693C146.02 34.6514 145.854 35.3115 145.854 36.0495C145.854 36.7875 146.02 37.4476 146.353 38.0297C146.685 38.6118 147.148 39.0692 147.74 39.4018C148.333 39.7241 149.003 39.8852 149.752 39.8852C150.906 39.8852 151.878 39.4538 152.668 38.591L153.977 39.8384C153.468 40.4309 152.839 40.8831 152.091 41.1949C151.353 41.5068 150.537 41.6627 149.643 41.6627ZM155.92 30.5922H157.947V41.5068H155.92V30.5922ZM165.997 41.6627C164.885 41.6627 163.882 41.4236 162.988 40.9455C162.094 40.4569 161.392 39.7864 160.883 38.9341C160.374 38.0713 160.119 37.1098 160.119 36.0495C160.119 34.9892 160.374 34.0329 160.883 33.1805C161.392 32.3178 162.094 31.6473 162.988 31.1691C163.882 30.6806 164.885 30.4363 165.997 30.4363C167.11 30.4363 168.113 30.6806 169.007 31.1691C169.901 31.6473 170.602 32.3126 171.112 33.1649C171.621 34.0173 171.876 34.9788 171.876 36.0495C171.876 37.1202 171.621 38.0817 171.112 38.9341C170.602 39.7864 169.901 40.4569 169.007 40.9455C168.113 41.4236 167.11 41.6627 165.997 41.6627ZM165.997 39.8852C166.725 39.8852 167.38 39.7241 167.962 39.4018C168.544 39.0692 169.001 38.6118 169.334 38.0297C169.667 37.4372 169.833 36.7771 169.833 36.0495C169.833 35.3219 169.667 34.667 169.334 34.0849C169.001 33.4924 168.544 33.035 167.962 32.7128C167.38 32.3801 166.725 32.2138 165.997 32.2138C165.27 32.2138 164.615 32.3801 164.033 32.7128C163.451 33.035 162.993 33.4924 162.661 34.0849C162.328 34.667 162.162 35.3219 162.162 36.0495C162.162 36.7771 162.328 37.4372 162.661 38.0297C162.993 38.6118 163.451 39.0692 164.033 39.4018C164.615 39.7241 165.27 39.8852 165.997 39.8852ZM177.408 41.6627C176.566 41.6627 175.75 41.5432 174.96 41.3041C174.18 41.065 173.562 40.748 173.104 40.353L173.806 38.7781C174.253 39.1316 174.799 39.4226 175.443 39.6513C176.098 39.8696 176.753 39.9787 177.408 39.9787C178.218 39.9787 178.821 39.8488 179.216 39.5889C179.622 39.3291 179.824 38.986 179.824 38.5598C179.824 38.248 179.71 37.9933 179.481 37.7958C179.263 37.5879 178.982 37.4268 178.639 37.3125C178.296 37.1981 177.829 37.0682 177.236 36.9227C176.405 36.7252 175.729 36.5277 175.209 36.3302C174.7 36.1327 174.258 35.826 173.884 35.4102C173.52 34.984 173.338 34.4123 173.338 33.6951C173.338 33.0922 173.499 32.5464 173.821 32.0579C174.154 31.5589 174.648 31.1639 175.303 30.8729C175.968 30.5818 176.779 30.4363 177.735 30.4363C178.4 30.4363 179.055 30.5195 179.7 30.6858C180.344 30.8521 180.9 31.0912 181.368 31.403L180.729 32.9778C180.251 32.6972 179.752 32.4841 179.232 32.3386C178.712 32.193 178.208 32.1203 177.72 32.1203C176.919 32.1203 176.321 32.2554 175.926 32.5257C175.542 32.7959 175.35 33.1545 175.35 33.6015C175.35 33.9134 175.459 34.168 175.677 34.3655C175.906 34.563 176.191 34.719 176.535 34.8333C176.878 34.9476 177.345 35.0776 177.938 35.2231C178.749 35.4102 179.414 35.6077 179.934 35.8156C180.453 36.0131 180.895 36.3198 181.259 36.7356C181.633 37.1513 181.82 37.7127 181.82 38.4195C181.82 39.0224 181.654 39.5681 181.321 40.0567C180.999 40.5453 180.505 40.9351 179.84 41.2261C179.175 41.5172 178.364 41.6627 177.408 41.6627ZM195.218 38.9808H189.761L188.685 41.5068H186.596L191.507 30.5922H193.503L198.43 41.5068H196.31L195.218 38.9808ZM194.548 37.3904L192.49 32.6192L190.447 37.3904H194.548ZM204.718 41.6627C203.616 41.6627 202.618 41.4236 201.724 40.9455C200.841 40.4569 200.144 39.7864 199.635 38.9341C199.136 38.0817 198.886 37.1202 198.886 36.0495C198.886 34.9788 199.141 34.0173 199.65 33.1649C200.16 32.3126 200.856 31.6473 201.74 31.1691C202.634 30.6806 203.632 30.4363 204.734 30.4363C205.627 30.4363 206.443 30.5922 207.182 30.9041C207.92 31.2159 208.543 31.6681 209.053 32.2606L207.743 33.4924C206.953 32.64 205.981 32.2138 204.827 32.2138C204.079 32.2138 203.408 32.3801 202.816 32.7128C202.223 33.035 201.761 33.4872 201.428 34.0693C201.095 34.6514 200.929 35.3115 200.929 36.0495C200.929 36.7875 201.095 37.4476 201.428 38.0297C201.761 38.6118 202.223 39.0692 202.816 39.4018C203.408 39.7241 204.079 39.8852 204.827 39.8852C205.981 39.8852 206.953 39.4538 207.743 38.591L209.053 39.8384C208.543 40.4309 207.914 40.8831 207.166 41.1949C206.428 41.5068 205.612 41.6627 204.718 41.6627ZM215.818 41.6627C214.716 41.6627 213.719 41.4236 212.825 40.9455C211.941 40.4569 211.245 39.7864 210.735 38.9341C210.236 38.0817 209.987 37.1202 209.987 36.0495C209.987 34.9788 210.241 34.0173 210.751 33.1649C211.26 32.3126 211.957 31.6473 212.84 31.1691C213.734 30.6806 214.732 30.4363 215.834 30.4363C216.728 30.4363 217.544 30.5922 218.282 30.9041C219.02 31.2159 219.644 31.6681 220.153 32.2606L218.843 33.4924C218.053 32.64 217.081 32.2138 215.927 32.2138C215.179 32.2138 214.509 32.3801 213.916 32.7128C213.324 33.035 212.861 33.4872 212.528 34.0693C212.196 34.6514 212.029 35.3115 212.029 36.0495C212.029 36.7875 212.196 37.4476 212.528 38.0297C212.861 38.6118 213.324 39.0692 213.916 39.4018C214.509 39.7241 215.179 39.8852 215.927 39.8852C217.081 39.8852 218.053 39.4538 218.843 38.591L220.153 39.8384C219.644 40.4309 219.015 40.8831 218.266 41.1949C217.528 41.5068 216.712 41.6627 215.818 41.6627ZM230.281 39.8072V41.5068H222.095V30.5922H230.063V32.2918H224.122V35.1296H229.392V36.7979H224.122V39.8072H230.281ZM235.924 41.6627C235.082 41.6627 234.266 41.5432 233.476 41.3041C232.697 41.065 232.078 40.748 231.621 40.353L232.322 38.7781C232.769 39.1316 233.315 39.4226 233.96 39.6513C234.614 39.8696 235.269 39.9787 235.924 39.9787C236.735 39.9787 237.338 39.8488 237.733 39.5889C238.138 39.3291 238.341 38.986 238.341 38.5598C238.341 38.248 238.227 37.9933 237.998 37.7958C237.78 37.5879 237.499 37.4268 237.156 37.3125C236.813 37.1981 236.345 37.0682 235.753 36.9227C234.921 36.7252 234.245 36.5277 233.726 36.3302C233.216 36.1327 232.775 35.826 232.4 35.4102C232.037 34.984 231.855 34.4123 231.855 33.6951C231.855 33.0922 232.016 32.5464 232.338 32.0579C232.671 31.5589 233.164 31.1639 233.819 30.8729C234.484 30.5818 235.295 30.4363 236.252 30.4363C236.917 30.4363 237.572 30.5195 238.216 30.6858C238.861 30.8521 239.417 31.0912 239.885 31.403L239.245 32.9778C238.767 32.6972 238.268 32.4841 237.748 32.3386C237.229 32.193 236.725 32.1203 236.236 32.1203C235.436 32.1203 234.838 32.2554 234.443 32.5257C234.058 32.7959 233.866 33.1545 233.866 33.6015C233.866 33.9134 233.975 34.168 234.193 34.3655C234.422 34.563 234.708 34.719 235.051 34.8333C235.394 34.9476 235.862 35.0776 236.454 35.2231C237.265 35.4102 237.93 35.6077 238.45 35.8156C238.97 36.0131 239.412 36.3198 239.775 36.7356C240.15 37.1513 240.337 37.7127 240.337 38.4195C240.337 39.0224 240.17 39.5681 239.838 40.0567C239.516 40.5453 239.022 40.9351 238.357 41.2261C237.691 41.5172 236.88 41.6627 235.924 41.6627ZM242.347 30.5922H244.374V41.5068H242.347V30.5922ZM255.06 35.8312C255.663 36.0287 256.141 36.3613 256.494 36.8291C256.848 37.2865 257.024 37.8582 257.024 38.5443C257.024 39.4902 256.66 40.223 255.933 40.7428C255.205 41.2521 254.145 41.5068 252.752 41.5068H247.326V30.5922H252.44C253.729 30.5922 254.722 30.8469 255.418 31.3562C256.115 31.8552 256.463 32.5464 256.463 33.43C256.463 33.9705 256.338 34.4487 256.089 34.8645C255.839 35.2803 255.496 35.6025 255.06 35.8312ZM249.353 32.1826V35.1919H252.222C252.929 35.1919 253.469 35.0672 253.843 34.8177C254.228 34.5578 254.42 34.1836 254.42 33.6951C254.42 33.1961 254.228 32.8219 253.843 32.5724C253.469 32.3126 252.929 32.1826 252.222 32.1826H249.353ZM252.627 39.9164C254.197 39.9164 254.982 39.3914 254.982 38.3416C254.982 37.2917 254.197 36.7667 252.627 36.7667H249.353V39.9164H252.627ZM259.188 30.5922H261.215V39.7916H266.921V41.5068H259.188V30.5922ZM276.707 39.8072V41.5068H268.522V30.5922H276.489V32.2918H270.549V35.1296H275.819V36.7979H270.549V39.8072H276.707ZM282.351 41.6627C281.509 41.6627 280.693 41.5432 279.903 41.3041C279.123 41.065 278.505 40.748 278.047 40.353L278.749 38.7781C279.196 39.1316 279.742 39.4226 280.386 39.6513C281.041 39.8696 281.696 39.9787 282.351 39.9787C283.161 39.9787 283.764 39.8488 284.159 39.5889C284.565 39.3291 284.767 38.986 284.767 38.5598C284.767 38.248 284.653 37.9933 284.424 37.7958C284.206 37.5879 283.925 37.4268 283.582 37.3125C283.239 37.1981 282.772 37.0682 282.179 36.9227C281.348 36.7252 280.672 36.5277 280.152 36.3302C279.643 36.1327 279.201 35.826 278.827 35.4102C278.463 34.984 278.281 34.4123 278.281 33.6951C278.281 33.0922 278.442 32.5464 278.764 32.0579C279.097 31.5589 279.591 31.1639 280.246 30.8729C280.911 30.5818 281.722 30.4363 282.678 30.4363C283.343 30.4363 283.998 30.5195 284.643 30.6858C285.287 30.8521 285.843 31.0912 286.311 31.403L285.672 32.9778C285.194 32.6972 284.695 32.4841 284.175 32.3386C283.655 32.193 283.151 32.1203 282.662 32.1203C281.862 32.1203 281.264 32.2554 280.869 32.5257C280.485 32.7959 280.292 33.1545 280.292 33.6015C280.292 33.9134 280.402 34.168 280.62 34.3655C280.849 34.563 281.134 34.719 281.477 34.8333C281.82 34.9476 282.288 35.0776 282.881 35.2231C283.692 35.4102 284.357 35.6077 284.877 35.8156C285.396 36.0131 285.838 36.3198 286.202 36.7356C286.576 37.1513 286.763 37.7127 286.763 38.4195C286.763 39.0224 286.597 39.5681 286.264 40.0567C285.942 40.5453 285.448 40.9351 284.783 41.2261C284.118 41.5172 283.307 41.6627 282.351 41.6627Z" fill="black"/>
<path d="M118.813 79.5362C119.53 79.6921 120.081 80.004 120.466 80.4717C120.861 80.9291 121.058 81.5216 121.058 82.2492C121.058 83.1848 120.71 83.9072 120.013 84.4166C119.327 84.9155 118.309 85.165 116.957 85.165H111.937V74.2504H116.646C117.862 74.2504 118.802 74.4947 119.468 74.9833C120.143 75.4718 120.481 76.1631 120.481 77.057C120.481 77.6599 120.331 78.1745 120.029 78.6007C119.738 79.0164 119.333 79.3283 118.813 79.5362ZM113.091 75.2016V79.162H116.568C117.451 79.162 118.132 78.9957 118.61 78.663C119.088 78.32 119.327 77.8262 119.327 77.1818C119.327 76.5373 119.088 76.0487 118.61 75.7161C118.132 75.3731 117.451 75.2016 116.568 75.2016H113.091ZM116.942 84.2139C117.919 84.2139 118.657 84.0475 119.156 83.7149C119.655 83.3823 119.904 82.8625 119.904 82.1557C119.904 80.794 118.917 80.1131 116.942 80.1131H113.091V84.2139H116.942ZM130.537 82.2492H124.456L123.146 85.165H121.945L126.935 74.2504H128.073L133.063 85.165H131.846L130.537 82.2492ZM130.116 81.3137L127.496 75.451L124.877 81.3137H130.116ZM142.321 85.165L139.827 81.6567C139.546 81.6879 139.255 81.7035 138.953 81.7035H136.022V85.165H134.868V74.2504H138.953C140.346 74.2504 141.438 74.5831 142.228 75.2483C143.018 75.9136 143.413 76.8283 143.413 77.9926C143.413 78.8449 143.194 79.5674 142.758 80.1599C142.332 80.742 141.718 81.163 140.918 81.4228L143.584 85.165H142.321ZM138.922 80.7212C140.003 80.7212 140.83 80.4821 141.401 80.004C141.973 79.5258 142.259 78.8553 142.259 77.9926C142.259 77.109 141.973 76.4333 141.401 75.9656C140.83 75.4874 140.003 75.2483 138.922 75.2483H136.022V80.7212H138.922ZM152.981 82.2492H146.9L145.59 85.165H144.39L149.379 74.2504H150.517L155.507 85.165H154.291L152.981 82.2492ZM152.56 81.3137L149.941 75.451L147.321 81.3137H152.56ZM158.885 75.2483H155.049V74.2504H163.874V75.2483H160.039V85.165H158.885V75.2483ZM170.337 85.2585C169.256 85.2585 168.273 85.0195 167.39 84.5413C166.517 84.0527 165.83 83.3875 165.332 82.5455C164.843 81.7035 164.599 80.7576 164.599 79.7077C164.599 78.6578 164.843 77.7119 165.332 76.8699C165.83 76.0279 166.517 75.3679 167.39 74.8897C168.273 74.4012 169.256 74.1569 170.337 74.1569C171.418 74.1569 172.39 74.396 173.252 74.8741C174.126 75.3523 174.812 76.0175 175.311 76.8699C175.809 77.7119 176.059 78.6578 176.059 79.7077C176.059 80.7576 175.809 81.7087 175.311 82.5611C174.812 83.4031 174.126 84.0631 173.252 84.5413C172.39 85.0195 171.418 85.2585 170.337 85.2585ZM170.337 84.2294C171.199 84.2294 171.979 84.0371 172.675 83.6525C173.372 83.2575 173.918 82.717 174.313 82.0309C174.708 81.3345 174.905 80.5601 174.905 79.7077C174.905 78.8553 174.708 78.0861 174.313 77.4001C173.918 76.7036 173.372 76.1631 172.675 75.7785C171.979 75.3835 171.199 75.186 170.337 75.186C169.474 75.186 168.689 75.3835 167.982 75.7785C167.286 76.1631 166.735 76.7036 166.329 77.4001C165.934 78.0861 165.737 78.8553 165.737 79.7077C165.737 80.5601 165.934 81.3345 166.329 82.0309C166.735 82.717 167.286 83.2575 167.982 83.6525C168.689 84.0371 169.474 84.2294 170.337 84.2294ZM181.654 85.2585C180.844 85.2585 180.064 85.1286 179.316 84.8687C178.578 84.6089 178.006 84.2658 177.601 83.8396L178.053 82.9509C178.448 83.3459 178.973 83.6681 179.628 83.9176C180.282 84.1567 180.958 84.2762 181.654 84.2762C182.632 84.2762 183.364 84.0995 183.853 83.7461C184.342 83.3823 184.586 82.9145 184.586 82.3428C184.586 81.9062 184.451 81.558 184.18 81.2981C183.921 81.0382 183.598 80.8407 183.214 80.7056C182.829 80.5601 182.294 80.4042 181.608 80.2378C180.787 80.0299 180.132 79.8324 179.643 79.6453C179.155 79.4478 178.734 79.1516 178.38 78.7566C178.037 78.3616 177.866 77.8262 177.866 77.1506C177.866 76.5997 178.011 76.1007 178.302 75.6537C178.593 75.1964 179.04 74.8325 179.643 74.5623C180.246 74.292 180.994 74.1569 181.888 74.1569C182.512 74.1569 183.12 74.2452 183.713 74.4219C184.316 74.5883 184.835 74.8221 185.272 75.1236L184.882 76.0435C184.425 75.7421 183.936 75.5186 183.416 75.3731C182.897 75.2171 182.387 75.1392 181.888 75.1392C180.932 75.1392 180.21 75.3263 179.721 75.7005C179.243 76.0643 179.004 76.5373 179.004 77.1194C179.004 77.556 179.134 77.9094 179.394 78.1797C179.664 78.4395 179.997 78.6422 180.392 78.7878C180.797 78.9229 181.337 79.0736 182.013 79.2399C182.814 79.4374 183.458 79.6349 183.947 79.8324C184.446 80.0195 184.866 80.3106 185.21 80.7056C185.553 81.0902 185.724 81.6151 185.724 82.2804C185.724 82.8313 185.573 83.3355 185.272 83.7929C184.981 84.2398 184.529 84.5985 183.915 84.8687C183.302 85.1286 182.548 85.2585 181.654 85.2585ZM196.061 81.3917V85.165H194.923V81.3917L190.557 74.2504H191.789L195.531 80.3782L199.273 74.2504H200.427L196.061 81.3917ZM214.015 84.1671V85.165H206.297V74.2504H213.781V75.2483H207.451V79.1308H213.095V80.1131H207.451V84.1671H214.015ZM221.406 85.2585C220.325 85.2585 219.348 85.0195 218.475 84.5413C217.612 84.0631 216.932 83.4031 216.433 82.5611C215.944 81.7087 215.7 80.7576 215.7 79.7077C215.7 78.6578 215.944 77.7119 216.433 76.8699C216.932 76.0175 217.618 75.3523 218.491 74.8741C219.364 74.396 220.341 74.1569 221.422 74.1569C222.233 74.1569 222.981 74.292 223.667 74.5623C224.353 74.8325 224.936 75.2275 225.414 75.7473L224.681 76.4801C223.828 75.6173 222.753 75.186 221.453 75.186C220.59 75.186 219.806 75.3835 219.099 75.7785C218.392 76.1735 217.836 76.714 217.43 77.4001C217.035 78.0861 216.838 78.8553 216.838 79.7077C216.838 80.5601 217.035 81.3293 217.43 82.0153C217.836 82.7014 218.392 83.2419 219.099 83.6369C219.806 84.0319 220.59 84.2294 221.453 84.2294C222.763 84.2294 223.839 83.7929 224.681 82.9197L225.414 83.6525C224.936 84.1723 224.348 84.5725 223.652 84.8531C222.966 85.1234 222.217 85.2585 221.406 85.2585ZM232.416 85.2585C231.335 85.2585 230.353 85.0195 229.469 84.5413C228.596 84.0527 227.91 83.3875 227.411 82.5455C226.923 81.7035 226.678 80.7576 226.678 79.7077C226.678 78.6578 226.923 77.7119 227.411 76.8699C227.91 76.0279 228.596 75.3679 229.469 74.8897C230.353 74.4012 231.335 74.1569 232.416 74.1569C233.497 74.1569 234.469 74.396 235.332 74.8741C236.205 75.3523 236.891 76.0175 237.39 76.8699C237.889 77.7119 238.139 78.6578 238.139 79.7077C238.139 80.7576 237.889 81.7087 237.39 82.5611C236.891 83.4031 236.205 84.0631 235.332 84.5413C234.469 85.0195 233.497 85.2585 232.416 85.2585ZM232.416 84.2294C233.279 84.2294 234.059 84.0371 234.755 83.6525C235.451 83.2575 235.997 82.717 236.392 82.0309C236.787 81.3345 236.985 80.5601 236.985 79.7077C236.985 78.8553 236.787 78.0861 236.392 77.4001C235.997 76.7036 235.451 76.1631 234.755 75.7785C234.059 75.3835 233.279 75.186 232.416 75.186C231.553 75.186 230.769 75.3835 230.062 75.7785C229.365 76.1631 228.814 76.7036 228.409 77.4001C228.014 78.0861 227.816 78.8553 227.816 79.7077C227.816 80.5601 228.014 81.3345 228.409 82.0309C228.814 82.717 229.365 83.2575 230.062 83.6525C230.769 84.0371 231.553 84.2294 232.416 84.2294ZM249.846 74.2504V85.165H248.895L241.879 76.3086V85.165H240.725V74.2504H241.676L248.708 83.1068V74.2504H249.846ZM258.18 85.2585C257.099 85.2585 256.117 85.0195 255.233 84.5413C254.36 84.0527 253.674 83.3875 253.175 82.5455C252.686 81.7035 252.442 80.7576 252.442 79.7077C252.442 78.6578 252.686 77.7119 253.175 76.8699C253.674 76.0279 254.36 75.3679 255.233 74.8897C256.117 74.4012 257.099 74.1569 258.18 74.1569C259.261 74.1569 260.233 74.396 261.096 74.8741C261.969 75.3523 262.655 76.0175 263.154 76.8699C263.653 77.7119 263.902 78.6578 263.902 79.7077C263.902 80.7576 263.653 81.7087 263.154 82.5611C262.655 83.4031 261.969 84.0631 261.096 84.5413C260.233 85.0195 259.261 85.2585 258.18 85.2585ZM258.18 84.2294C259.043 84.2294 259.822 84.0371 260.519 83.6525C261.215 83.2575 261.761 82.717 262.156 82.0309C262.551 81.3345 262.748 80.5601 262.748 79.7077C262.748 78.8553 262.551 78.0861 262.156 77.4001C261.761 76.7036 261.215 76.1631 260.519 75.7785C259.822 75.3835 259.043 75.186 258.18 75.186C257.317 75.186 256.532 75.3835 255.825 75.7785C255.129 76.1631 254.578 76.7036 254.173 77.4001C253.778 78.0861 253.58 78.8553 253.58 79.7077C253.58 80.5601 253.778 81.3345 254.173 82.0309C254.578 82.717 255.129 83.2575 255.825 83.6525C256.532 84.0371 257.317 84.2294 258.18 84.2294ZM259.303 71.4282H260.784L258.258 73.3617H257.166L259.303 71.4282ZM277.824 74.2504V85.165H276.717V76.4333L272.429 83.7773H271.883L267.595 76.4801V85.165H266.488V74.2504H267.44L272.18 82.3428L276.873 74.2504H277.824ZM281.38 74.2504H282.534V85.165H281.38V74.2504ZM290.825 85.2585C289.744 85.2585 288.767 85.0195 287.894 84.5413C287.031 84.0631 286.35 83.4031 285.851 82.5611C285.363 81.7087 285.119 80.7576 285.119 79.7077C285.119 78.6578 285.363 77.7119 285.851 76.8699C286.35 76.0175 287.036 75.3523 287.91 74.8741C288.783 74.396 289.76 74.1569 290.841 74.1569C291.652 74.1569 292.4 74.292 293.086 74.5623C293.772 74.8325 294.354 75.2275 294.833 75.7473L294.1 76.4801C293.247 75.6173 292.171 75.186 290.872 75.186C290.009 75.186 289.225 75.3835 288.518 75.7785C287.811 76.1735 287.255 76.714 286.849 77.4001C286.454 78.0861 286.257 78.8553 286.257 79.7077C286.257 80.5601 286.454 81.3293 286.849 82.0153C287.255 82.7014 287.811 83.2419 288.518 83.6369C289.225 84.0319 290.009 84.2294 290.872 84.2294C292.182 84.2294 293.258 83.7929 294.1 82.9197L294.833 83.6525C294.354 84.1723 293.767 84.5725 293.071 84.8531C292.385 85.1234 291.636 85.2585 290.825 85.2585ZM301.835 85.2585C300.754 85.2585 299.772 85.0195 298.888 84.5413C298.015 84.0527 297.329 83.3875 296.83 82.5455C296.341 81.7035 296.097 80.7576 296.097 79.7077C296.097 78.6578 296.341 77.7119 296.83 76.8699C297.329 76.0279 298.015 75.3679 298.888 74.8897C299.772 74.4012 300.754 74.1569 301.835 74.1569C302.916 74.1569 303.888 74.396 304.751 74.8741C305.624 75.3523 306.31 76.0175 306.809 76.8699C307.308 77.7119 307.557 78.6578 307.557 79.7077C307.557 80.7576 307.308 81.7087 306.809 82.5611C306.31 83.4031 305.624 84.0631 304.751 84.5413C303.888 85.0195 302.916 85.2585 301.835 85.2585ZM301.835 84.2294C302.698 84.2294 303.477 84.0371 304.174 83.6525C304.87 83.2575 305.416 82.717 305.811 82.0309C306.206 81.3345 306.404 80.5601 306.404 79.7077C306.404 78.8553 306.206 78.0861 305.811 77.4001C305.416 76.7036 304.87 76.1631 304.174 75.7785C303.477 75.3835 302.698 75.186 301.835 75.186C300.972 75.186 300.187 75.3835 299.481 75.7785C298.784 76.1631 298.233 76.7036 297.828 77.4001C297.433 78.0861 297.235 78.8553 297.235 79.7077C297.235 80.5601 297.433 81.3345 297.828 82.0309C298.233 82.717 298.784 83.2575 299.481 83.6525C300.187 84.0371 300.972 84.2294 301.835 84.2294ZM313.153 85.2585C312.342 85.2585 311.563 85.1286 310.814 84.8687C310.076 84.6089 309.504 84.2658 309.099 83.8396L309.551 82.9509C309.946 83.3459 310.471 83.6681 311.126 83.9176C311.781 84.1567 312.456 84.2762 313.153 84.2762C314.13 84.2762 314.863 84.0995 315.351 83.7461C315.84 83.3823 316.084 82.9145 316.084 82.3428C316.084 81.9062 315.949 81.558 315.679 81.2981C315.419 81.0382 315.097 80.8407 314.712 80.7056C314.328 80.5601 313.792 80.4042 313.106 80.2378C312.285 80.0299 311.63 79.8324 311.142 79.6453C310.653 79.4478 310.232 79.1516 309.879 78.7566C309.536 78.3616 309.364 77.8262 309.364 77.1506C309.364 76.5997 309.51 76.1007 309.801 75.6537C310.092 75.1964 310.539 74.8325 311.142 74.5623C311.744 74.292 312.493 74.1569 313.387 74.1569C314.01 74.1569 314.619 74.2452 315.211 74.4219C315.814 74.5883 316.334 74.8221 316.77 75.1236L316.381 76.0435C315.923 75.7421 315.435 75.5186 314.915 75.3731C314.395 75.2171 313.886 75.1392 313.387 75.1392C312.43 75.1392 311.708 75.3263 311.219 75.7005C310.741 76.0643 310.502 76.5373 310.502 77.1194C310.502 77.556 310.632 77.9094 310.892 78.1797C311.162 78.4395 311.495 78.6422 311.89 78.7878C312.295 78.9229 312.836 79.0736 313.512 79.2399C314.312 79.4374 314.956 79.6349 315.445 79.8324C315.944 80.0195 316.365 80.3106 316.708 80.7056C317.051 81.0902 317.222 81.6151 317.222 82.2804C317.222 82.8313 317.072 83.3355 316.77 83.7929C316.479 84.2398 316.027 84.5985 315.414 84.8687C314.8 85.1286 314.047 85.2585 313.153 85.2585Z" fill="black"/>
<defs>
<filter id="filter0_d_64_84" x="0.881557" y="0" width="333.237" height="120.06" filterUnits="userSpaceOnUse" color-interpolation-filters="sRGB">
<feFlood flood-opacity="0" result="BackgroundImageFix"/>
<feColorMatrix in="SourceAlpha" type="matrix" values="0 0 0 0 0 0 0 0 0 0 0 0 0 0 0 0 0 0 127 0" result="hardAlpha"/>
<feOffset dy="3.11844"/>
<feGaussianBlur stdDeviation="1.55922"/>
<feComposite in2="hardAlpha" operator="out"/>
<feColorMatrix type="matrix" values="0 0 0 0 0 0 0 0 0 0 0 0 0 0 0 0 0 0 0.25 0"/>
<feBlend mode="normal" in2="BackgroundImageFix" result="effect1_dropShadow_64_84"/>
<feBlend mode="normal" in="SourceGraphic" in2="effect1_dropShadow_64_84" result="shape"/>
</filter>
</defs>
</svg>
