<svg width="38" height="34" viewBox="0 0 38 34" fill="none" xmlns="http://www.w3.org/2000/svg">
<path d="M14.677 34C13.5599 34 12.4885 33.5522 11.6986 32.7552C10.9087 31.9582 10.4649 30.8772 10.4649 29.75C10.4649 28.6228 10.9087 27.5418 11.6986 26.7448C12.4885 25.9478 13.5599 25.5 14.677 25.5C15.7941 25.5 16.8655 25.9478 17.6554 26.7448C18.4453 27.5418 18.8891 28.6228 18.8891 29.75C18.8891 30.8772 18.4453 31.9582 17.6554 32.7552C16.8655 33.5522 15.7941 34 14.677 34ZM29.4193 34C28.3022 34 27.2308 33.5522 26.4409 32.7552C25.651 31.9582 25.2072 30.8772 25.2072 29.75C25.2072 28.6228 25.651 27.5418 26.4409 26.7448C27.2308 25.9478 28.3022 25.5 29.4193 25.5C30.5364 25.5 31.6077 25.9478 32.3977 26.7448C33.1876 27.5418 33.6314 28.6228 33.6314 29.75C33.6314 30.8772 33.1876 31.9582 32.3977 32.7552C31.6077 33.5522 30.5364 34 29.4193 34ZM1.9607 4.08637C1.43495 4.06926 0.936407 3.8465 0.570497 3.4652C0.204587 3.0839 0 2.57395 0 2.04319C0 1.51243 0.204587 1.00248 0.570497 0.621174C0.936407 0.239871 1.43495 0.0171101 1.9607 0H4.38475C6.2844 0 7.92712 1.33025 8.3399 3.20025L10.9788 15.1895C11.3916 17.0595 13.0343 18.3898 14.9339 18.3898H30.7545L33.7914 6.1285H14.1105C13.5897 6.10452 13.0981 5.8789 12.7379 5.49855C12.3778 5.1182 12.1768 4.61241 12.1768 4.08637C12.1768 3.56034 12.3778 3.05455 12.7379 2.6742C13.0981 2.29386 13.5897 2.06823 14.1105 2.04425H33.7914C34.4071 2.04407 35.0147 2.18552 35.568 2.45785C36.1214 2.73018 36.6059 3.12622 36.9848 3.61587C37.3637 4.10551 37.627 4.67587 37.7546 5.28359C37.8822 5.89131 37.8708 6.52039 37.7213 7.123L34.6844 19.38C34.4654 20.2644 33.9597 21.0496 33.2476 21.6106C32.5355 22.1716 31.658 22.4763 30.7545 22.4761H14.9339C13.0907 22.4764 11.3025 21.8423 9.8647 20.6786C8.42689 19.5149 7.42543 17.8912 7.02573 16.0756L4.38475 4.08637H1.9607Z" fill="white"/>
</svg>
