<svg width="35" height="35" viewBox="0 0 35 35" fill="none" xmlns="http://www.w3.org/2000/svg">
<path d="M17.5 0C7.83501 0 0 7.83501 0 17.5C0 27.165 7.83501 35 17.5 35C27.165 35 35 27.165 35 17.5C35 7.83501 27.165 0 17.5 0ZM11.2109 6.95129C11.5715 6.93003 11.8974 7.14554 12.1445 7.52806L14.537 12.0654C14.789 12.6031 14.6458 13.1788 14.27 13.5629L13.1741 14.6588C13.1065 14.7515 13.062 14.8559 13.0609 14.9707C13.4812 16.5974 14.756 18.098 15.8808 19.1299C17.0055 20.1618 18.2144 21.5589 19.7836 21.8899C19.9776 21.944 20.2152 21.9634 20.354 21.8344L21.6272 20.5377C22.0667 20.2046 22.7025 20.0432 23.1717 20.3156H23.193L27.5103 22.8641C28.1441 23.2613 28.2097 24.0291 27.756 24.4962L24.7824 27.4463C24.3433 27.8966 23.7599 28.048 23.1931 28.0487C20.6863 27.9736 18.3177 26.7432 16.3721 25.4788C13.1787 23.1556 10.2494 20.2742 8.41035 16.7929C7.70505 15.3331 6.87651 13.4705 6.95558 11.8412C6.96264 11.2282 7.12848 10.6277 7.56015 10.2326L10.5338 7.25897C10.7654 7.06186 10.9946 6.96407 11.2109 6.95129Z" fill="#00CB00"/>
</svg>
