<svg width="34" height="34" viewBox="0 0 34 34" fill="none" xmlns="http://www.w3.org/2000/svg">
<path d="M29.0328 4.94284C27.467 3.36966 25.6023 2.12243 23.5475 1.27384C21.4926 0.425244 19.2887 -0.00774406 17.064 0.000104827C7.74221 0.000104827 0.145153 7.56083 0.136615 16.8428C0.136615 19.8157 0.91788 22.7078 2.39289 25.2684L0 34L8.97388 31.6583C11.4564 33.0032 14.2377 33.7082 17.064 33.7089H17.0726C26.3965 33.7089 33.9915 26.1481 34 16.8577C34.0021 14.6435 33.5641 12.4508 32.7113 10.4059C31.8584 8.36104 30.6075 6.50435 29.0306 4.94284H29.0328ZM17.064 30.8571C14.5431 30.858 12.0684 30.1826 9.9003 28.9021L9.38799 28.5961L4.06429 29.9859L5.48594 24.8158L5.15294 24.2824C3.74369 22.0519 2.99837 19.4694 3.00339 16.8343C3.00339 9.12908 9.31542 2.84335 17.0726 2.84335C18.9206 2.84005 20.751 3.20093 22.4582 3.90519C24.1655 4.60945 25.7158 5.64315 27.0198 6.94671C28.3284 8.24518 29.3658 9.78873 30.0722 11.4883C30.7785 13.1879 31.1399 15.0099 31.1354 16.8492C31.1268 24.582 24.8148 30.8571 17.064 30.8571V30.8571ZM24.7806 20.3724C24.3601 20.162 22.2831 19.1442 21.8925 18.9997C21.504 18.8615 21.2201 18.7893 20.9426 19.21C20.6587 19.6287 19.8476 20.5828 19.6042 20.8569C19.3609 21.1395 19.109 21.1714 18.6863 20.9632C18.2658 20.7507 16.9018 20.3087 15.288 18.87C14.0286 17.7544 13.1855 16.3732 12.9336 15.9546C12.6902 15.5338 12.9101 15.3086 13.1214 15.0982C13.3071 14.9112 13.5419 14.6052 13.7533 14.3629C13.9667 14.1207 14.0372 13.9422 14.1759 13.6617C14.3147 13.3769 14.2485 13.1347 14.1439 12.9243C14.0372 12.7139 13.194 10.6378 12.8375 9.80057C12.496 8.97395 12.148 9.0887 11.8876 9.07808C11.6443 9.0632 11.3604 9.0632 11.0765 9.0632C10.8621 9.06851 10.6511 9.11787 10.4568 9.20819C10.2625 9.29852 10.089 9.42785 9.94726 9.58807C9.55876 10.0088 8.47225 11.0267 8.47225 13.1028C8.47225 15.1789 9.98782 17.1743 10.2013 17.4569C10.4105 17.7395 13.1769 21.9874 17.4226 23.8149C18.4259 24.2505 19.2157 24.5077 19.8326 24.7032C20.8466 25.0262 21.7623 24.9773 22.4923 24.8732C23.3035 24.7499 24.992 23.8532 25.3484 22.8693C25.6985 21.8833 25.6985 21.0418 25.5918 20.8654C25.4872 20.6869 25.2033 20.5828 24.7806 20.3724V20.3724Z" fill="#00CB00"/>
</svg>
